# xmcd CD database file
#
# Track frame offsets:
#	150
#	44755
#	82860
#	119787
#	161403
#	201840
#	236473
#	272264
#
# Disc length: 3950 seconds
#
# Revision: 0
# Processed by: cddbd v1.5.2PL0 Copyright (c) Steve Scherf et al.
# Submitted via: CDex 1.51
#
DISCID=650f6c08
DTITLE=Tam de Villiers Quartet - Alba Lux
DYEAR=2008
DGENRE=Jazz
TTITLE0=Alba Lux
TTITLE1=Lexicon
TTITLE2=Ersatz Ego
TTITLE3=Point
TTITLE4=Infinity Fragment
TTITLE5=Oneiric
TTITLE6=Parser
TTITLE7=upine Days
EXTD=YEAR: 2008
EXTT0=
EXTT1=
EXTT2=
EXTT3=
EXTT4=
EXTT5=
EXTT6=
EXTT7=
PLAYORDER=
